{"accessors":[{"bufferView":2,"componentType":5126,"count":7600,"max":[1.5629099607467651,2.8915183544158936,2.0597200393676758],"min":[-1.5629099607467651,-0.43845167756080627,-1.9028700590133667],"type":"VEC3"},{"bufferView":2,"byteOffset":91200,"componentType":5126,"count":7600,"max":[1,1,1],"min":[-1,-1,-1],"type":"VEC3"},{"bufferView":1,"componentType":5126,"count":7600,"max":[0.99769002199172974,0.99769002199172974],"min":[0.0023099998943507671,0.0023099998943507671],"type":"VEC2"},{"bufferView":3,"componentType":5126,"count":7600,"max":[1,1,1,1],"min":[-1,-1,-1,1],"type":"VEC4"},{"bufferView":0,"componentType":5125,"count":20304,"max":[7599],"min":[0],"type":"SCALAR"},{"bufferView":2,"byteOffset":182400,"componentType":5126,"count":192,"max":[1.020799994468689,2.062908411026001,1.7592699527740479],"min":[-1.0208100080490112,1.5395482778549194,1.7112200260162354],"type":"VEC3"},{"bufferView":2,"byteOffset":184704,"componentType":5126,"count":192,"max":[0,0,1],"min":[0,0,1],"type":"VEC3"},{"bufferView":1,"byteOffset":60800,"componentType":5126,"count":192,"max":[0.97417998313903809,0.96393001079559326],"min":[0.025820000097155571,0.036070000380277634],"type":"VEC2"},{"bufferView":3,"byteOffset":121600,"componentType":5126,"count":192,"max":[0.99537467956542969,0.88199359178543091,0,1],"min":[-0.63665014505386353,-0.95698320865631104,0,1],"type":"VEC4"},{"bufferView":0,"byteOffset":81216,"componentType":5125,"count":564,"max":[191],"min":[0],"type":"SCALAR"},{"bufferView":2,"byteOffset":187008,"componentType":5126,"count":995,"max":[2.2667500972747803,0.24210000038146973,1.4698799848556519],"min":[-2.2667500972747803,-3.3259499073028564,-1.392300009727478],"type":"VEC3"},{"bufferView":2,"byteOffset":198948,"componentType":5126,"count":995,"max":[1,1,1],"min":[-1,-1,-1],"type":"VEC3"},{"bufferView":1,"byteOffset":62336,"componentType":5126,"count":995,"max":[0.99708998203277588,0.99708998203277588],"min":[0.0029100000392645597,0.0029100000392645597],"type":"VEC2"},{"bufferView":3,"byteOffset":124672,"componentType":5126,"count":995,"max":[1,1,1,1],"min":[-1,-1,-1,1],"type":"VEC4"},{"bufferView":0,"byteOffset":83472,"componentType":5125,"count":2088,"max":[994],"min":[0],"type":"SCALAR"},{"bufferView":2,"byteOffset":210888,"componentType":5126,"count":1064,"max":[0.98914998769760132,-2.180919885635376,0.72671997547149658],"min":[-1.1194700002670288,-4.6397900581359863,-0.81585997343063354],"type":"VEC3"},{"bufferView":2,"byteOffset":223656,"componentType":5126,"count":1064,"max":[0.99991869926452637,0.99623852968215942,0.99993181228637695],"min":[-0.99991869926452637,-0.99836927652359009,-0.99993181228637695],"type":"VEC3"},{"bufferView":1,"byteOffset":70296,"componentType":5126,"count":1064,"max":[0.9964900016784668,0.99646997451782227],"min":[0.0035099999513477087,0.0035300001036375761],"type":"VEC2"},{"bufferView":3,"byteOffset":140592,"componentType":5126,"count":1064,"max":[0.99682027101516724,0.95901685953140259,0.99353069067001343,1],"min":[-0.99891185760498047,-0.96932286024093628,-0.99832099676132202,1],"type":"VEC4"},{"bufferView":0,"byteOffset":91824,"componentType":5125,"count":3672,"max":[1063],"min":[0],"type":"SCALAR"},{"bufferView":2,"byteOffset":236424,"componentType":5126,"count":8781,"max":[8.7059555053710938,-0.92442017793655396,0.29558798670768738],"min":[-8.8030767440795898,-1.7529469728469849,-1.0210129022598267],"type":"VEC3"},{"bufferView":2,"byteOffset":341796,"componentType":5126,"count":8781,"max":[1.0000066757202148,1.0000098943710327,1.0000088214874268],"min":[-1.0000066757202148,-1.0000098943710327,-1.0000088214874268],"type":"VEC3"},{"bufferView":1,"byteOffset":78808,"componentType":5126,"count":8781,"max":[0.99950999021530151,0.99950999021530151],"min":[0.00049000000581145287,0.00049000000581145287],"type":"VEC2"},{"bufferView":3,"byteOffset":157616,"componentType":5126,"count":8781,"max":[1,1,1,1],"min":[-1,-1,-1,-1],"type":"VEC4"},{"bufferView":0,"byteOffset":106512,"componentType":5125,"count":25440,"max":[8780],"min":[0],"type":"SCALAR"},{"bufferView":2,"byteOffset":447168,"componentType":5126,"count":3540,"max":[1.7399201393127441,-4.1444272994995117,0.93972307443618774],"min":[-1.7568768262863159,-11.75281810760498,-1.4848335981369019],"type":"VEC3"},{"bufferView":2,"byteOffset":489648,"componentType":5126,"count":3540,"max":[1.0000020265579224,0.99999898672103882,1.0000057220458984],"min":[-1.0000020265579224,-0.99999898672103882,-1.0000057220458984],"type":"VEC3"},{"bufferView":1,"byteOffset":149056,"componentType":5126,"count":3540,"max":[0.99927002191543579,0.99927002191543579],"min":[0.00073000002885237336,0.00073000002885237336],"type":"VEC2"},{"bufferView":3,"byteOffset":298112,"componentType":5126,"count":3540,"max":[1,1,1,1],"min":[-1,-1,-1,-1],"type":"VEC4"},{"bufferView":0,"byteOffset":208272,"componentType":5125,"count":10272,"max":[3539],"min":[0],"type":"SCALAR"}],"asset":{"generator":"Sketchfab (OSG glTF plugin)","version":"2.0"},"bufferViews":[{"buffer":0,"byteLength":249360,"byteOffset":0,"name":"ScalarBufferView","target":34962},{"buffer":0,"byteLength":177376,"byteOffset":249360,"byteStride":8,"name":"Vec2BufferView","target":34962},{"buffer":0,"byteLength":532128,"byteOffset":426736,"byteStride":12,"name":"Vec3BufferView","target":34962},{"buffer":0,"byteLength":354752,"byteOffset":958864,"byteStride":16,"name":"Vec4BufferView","target":34962}],"buffers":[{"byteLength":1313616,"uri":"scene.bin"}],"images":[{"uri":"textures\/HEAD_baseColor.png"},{"uri":"textures\/HEAD_metallicRoughness.png"},{"uri":"textures\/BODY_baseColor.png"},{"uri":"textures\/BODY_metallicRoughness.png"},{"uri":"textures\/LEG_baseColor.png"},{"uri":"textures\/LEG_metallicRoughness.png"},{"uri":"textures\/EYES_baseColor.png"},{"uri":"textures\/EYES_emissive.png"},{"uri":"textures\/ARM_baseColor.png"},{"uri":"textures\/ARM_metallicRoughness.png"},{"uri":"textures\/HINGE_baseColor.png"},{"uri":"textures\/HINGE_metallicRoughness.png"}],"materials":[{"doubleSided":true,"emissiveFactor":[0,0,0],"name":"HEAD","pbrMetallicRoughness":{"baseColorFactor":[1,1,1,1],"baseColorTexture":{"index":0,"texCoord":0},"metallicFactor":0.32000000000000001,"metallicRoughnessTexture":{"index":1,"texCoord":0},"roughnessFactor":0.20000000000000001}},{"doubleSided":true,"emissiveFactor":[1,1,1],"emissiveTexture":{"index":7,"texCoord":0},"name":"EYES","pbrMetallicRoughness":{"baseColorFactor":[1,1,1,1],"baseColorTexture":{"index":6,"texCoord":0},"metallicFactor":0,"roughnessFactor":0.20000000000000001}},{"doubleSided":true,"emissiveFactor":[0,0,0],"name":"BODY","normalFactor":1,"pbrMetallicRoughness":{"baseColorFactor":[1,1,1,1],"baseColorTexture":{"index":2,"texCoord":0},"metallicFactor":0.5,"metallicRoughnessTexture":{"index":3,"texCoord":0},"roughnessFactor":0.20000000000000001}},{"doubleSided":true,"emissiveFactor":[0,0,0],"name":"HINGE","pbrMetallicRoughness":{"baseColorFactor":[1,1,1,1],"baseColorTexture":{"index":10,"texCoord":0},"metallicFactor":0.41999999999999998,"metallicRoughnessTexture":{"index":11,"texCoord":0},"roughnessFactor":0.20000000000000001}},{"doubleSided":true,"emissiveFactor":[0,0,0],"name":"ARM","pbrMetallicRoughness":{"baseColorFactor":[1,1,1,1],"baseColorTexture":{"index":8,"texCoord":0},"metallicFactor":0.32000000000000001,"metallicRoughnessTexture":{"index":9,"texCoord":0},"roughnessFactor":0.20000000000000001}},{"doubleSided":true,"emissiveFactor":[0,0,0],"name":"LEG","pbrMetallicRoughness":{"baseColorFactor":[1,1,1,1],"baseColorTexture":{"index":4,"texCoord":0},"metallicFactor":0.46999999999999997,"metallicRoughnessTexture":{"index":5,"texCoord":0},"roughnessFactor":0.20000000000000001}}],"meshes":[{"name":"GeodeCylinder.003","primitives":[{"attributes":{"NORMAL":1,"POSITION":0,"TANGENT":3,"TEXCOORD_0":2},"indices":4,"material":0,"mode":4},{"attributes":{"NORMAL":6,"POSITION":5,"TANGENT":8,"TEXCOORD_0":7},"indices":9,"material":1,"mode":4},{"attributes":{"NORMAL":11,"POSITION":10,"TANGENT":13,"TEXCOORD_0":12},"indices":14,"material":2,"mode":4},{"attributes":{"NORMAL":16,"POSITION":15,"TANGENT":18,"TEXCOORD_0":17},"indices":19,"material":3,"mode":4},{"attributes":{"NORMAL":21,"POSITION":20,"TANGENT":23,"TEXCOORD_0":22},"indices":24,"material":4,"mode":4},{"attributes":{"NORMAL":26,"POSITION":25,"TANGENT":28,"TEXCOORD_0":27},"indices":29,"material":5,"mode":4}]}],"nodes":[{"children":[1],"name":"RootNode (gltf orientation matrix)","rotation":[-0.70710678118654746,-0,-0,0.70710678118654757]},{"children":[2],"name":"RootNode (model correction matrix)"},{"children":[3,5,7],"name":"Root"},{"children":[4],"matrix":[1,0,0,0,0,1,0,0,0,0,1,0,13.036379999999999,-0.40621000000000002,4.7591400000000004,1],"name":"Hemi.001"},{"name":"Hemi.001"},{"children":[6],"matrix":[-1,0,-0,0,0,1,0,0,0,0,-1,0,11.44239,2.0303399999999998,-4.3511099999999994,1],"name":"Hemi.002"},{"name":"Hemi.002"},{"children":[8],"matrix":[1,0,0,0,0,1,0,0,0,0,1,0,0.0086899995803833008,-3.5164699554443359,12.19927978515625,1],"name":"ROBOT BONES"},{"children":[9],"matrix":[0.85509000000000013,0,0,0,0,0,0.85509000000000013,0,0,-0.85509000000000013,0,0,-0.0086900000000000015,-0.16549000000000005,-3.0006499999999998,1],"name":"Cylinder.001"},{"mesh":0,"name":"GeodeCylinder.003"}],"samplers":[{"magFilter":9729,"minFilter":9987,"wrapS":10497,"wrapT":10497}],"scene":0,"scenes":[{"name":"OSG_Scene","nodes":[0]}],"textures":[{"sampler":0,"source":0},{"sampler":0,"source":1},{"sampler":0,"source":2},{"sampler":0,"source":3},{"sampler":0,"source":4},{"sampler":0,"source":5},{"sampler":0,"source":6},{"sampler":0,"source":7},{"sampler":0,"source":8},{"sampler":0,"source":9},{"sampler":0,"source":10},{"sampler":0,"source":11}]}
